<?xml version="1.0" encoding="UTF-8"?>
<svg version="1.1" xmlns="http://www.w3.org/2000/svg" width="1200" height="1200">
<path d="M0 0 C24.1584058 7.24752174 47.21938783 16.22448669 70 27 C70.91249512 27.42603516 71.82499023 27.85207031 72.76513672 28.29101562 C105.21925703 43.51809761 136.68342449 63.8051563 164 87 C165.06721955 87.89381311 166.13495443 88.78701115 167.203125 89.6796875 C173.92951094 95.31642248 180.51849353 101.08210279 187 107 C188.39992188 108.26070312 188.39992188 108.26070312 189.828125 109.546875 C199.44221716 118.2328741 208.93927322 127.16895961 217.3359375 137.0546875 C219.30139014 139.35232932 221.33729871 141.57873123 223.375 143.8125 C227.63356534 148.54344401 231.71751444 153.38455645 235.68652344 158.36083984 C236.59817556 159.49854102 237.51594415 160.63135732 238.43847656 161.76025391 C256.1836596 183.49951147 271.47752329 207.44387112 285 232 C285.54172852 232.98178223 286.08345703 233.96356445 286.64160156 234.97509766 C317.10787108 290.69748924 334.30211174 351.14487817 342 414 C342.20133545 415.62180176 342.20133545 415.62180176 342.40673828 417.27636719 C350.11609481 483.13660845 341.17808735 552.12952615 321 615 C320.65743164 616.07024414 320.31486328 617.14048828 319.96191406 618.24316406 C308.9556146 652.20575261 293.97405399 685.6895492 275 716 C274.47583496 716.84965332 273.95166992 717.69930664 273.41162109 718.57470703 C266.21739933 730.22454603 258.71985949 741.47129542 250.32128906 752.28613281 C248.36174287 754.82789451 246.46697505 757.4168393 244.5625 760 C238.92757244 767.50984017 232.97895318 774.76318461 227 782 C226.51740723 782.58458984 226.03481445 783.16917969 225.53759766 783.77148438 C215.31177779 796.11558659 204.3902268 807.70645221 193.10040283 819.0748291 C192.00849701 820.17479046 190.91807446 821.27622663 189.82928467 822.37927246 C183.67380931 828.60671807 177.4346903 834.46407006 170.57202148 839.92431641 C168.10967277 841.91149142 165.75765964 843.97650342 163.4140625 846.1015625 C158.92705958 850.13009778 154.21368542 853.78067015 149.375 857.375 C148.50037109 858.02637939 147.62574219 858.67775879 146.72460938 859.34887695 C116.00939807 882.07352716 81.96633441 901.08410662 45.72265625 913.3671875 C38.35265085 915.87786667 31.07995116 918.66603009 23.79003906 921.3984375 C3.408951 929 3.408951 929 0 929 C0 814.82 0 700.64 0 583 C2.5647434 581.7176283 4.80671656 581.57717532 7.66015625 581.23828125 C39.00680882 577.33716366 68.52227292 569.87493092 97 556 C97.80179688 555.60941406 98.60359375 555.21882812 99.4296875 554.81640625 C119.55331235 544.88484382 138.21549179 532.29538982 154.734375 517.08203125 C156.80892036 515.1755956 158.92265931 513.3323439 161.0625 511.5 C169.23626579 504.34385163 176.26776955 496.51138433 183 488 C183.93332743 486.83442211 184.86693253 485.66906653 185.80078125 484.50390625 C190.83756317 478.18856316 195.70296775 471.85349448 200 465 C192.6910067 452.77676888 183.940804 441.85595829 174.25390625 431.44140625 C172.33187905 429.35948771 170.50374045 427.23574103 168.6875 425.0625 C125.97099478 376.3002713 61.99237123 355.2656495 0 347 C0 232.49 0 117.98 0 0 Z M225 517 C223.63705429 518.60024429 222.31088727 520.23183922 221 521.875 C217.17347518 526.60652831 213.21615787 531.16796006 209.1171875 535.6640625 C207.20919797 537.76918748 205.34952931 539.90613634 203.5 542.0625 C197.17144063 549.29099213 190.36558247 555.69762217 182.86328125 561.6953125 C179.98353671 564.01325149 177.18271079 566.40808556 174.375 568.8125 C142.60003089 595.2371851 104.37349767 613.65454191 65.54516602 627.08959961 C63.00698262 627.99750233 60.50287116 628.99885154 58 630 C58 701.61 58 773.22 58 847 C69.10747213 843.62304425 69.10747213 843.62304425 79.875 839.5 C80.66253662 839.16452148 81.45007324 838.82904297 82.26147461 838.48339844 C104.61850602 828.74232255 125.03888507 816.29043755 144 801 C144.98484375 800.22011719 145.9696875 799.44023438 146.984375 798.63671875 C162.26547946 786.16749265 176.44056504 771.99844749 188 756 C188.85334392 754.85225242 189.70752439 753.70512638 190.5625 752.55859375 C196.60732025 744.36843019 202.01137757 735.87023615 207 727 C207.4345752 726.2280127 207.86915039 725.45602539 208.31689453 724.66064453 C225.19584323 694.33849762 236.48285335 660.59890774 240 626 C240.11085938 625.01257813 240.22171875 624.02515625 240.3359375 623.0078125 C243.68228433 588.18771716 239.43812408 549.45907858 226 517 C225.67 517 225.34 517 225 517 Z " fill="#AFE038" transform="translate(657,264)"/>
<path d="M0 0 C0 114.18 0 228.36 0 346 C-2.5647434 347.2823717 -4.80671656 347.42282468 -7.66015625 347.76171875 C-39.00680882 351.66283634 -68.52227292 359.12506908 -97 373 C-97.80179688 373.39058594 -98.60359375 373.78117187 -99.4296875 374.18359375 C-119.55193219 384.11447503 -138.2117337 396.70294945 -154.73046875 411.9140625 C-156.8276005 413.84154676 -158.96376355 415.70761357 -161.125 417.5625 C-176.30113154 430.81489656 -189.24415739 447.01209565 -200 464 C-192.50428432 476.53549721 -183.50096107 487.66166525 -173.5078125 498.28125 C-171.73384026 500.20443486 -170.05799361 502.11953578 -168.40625 504.140625 C-166.47539876 506.4350781 -164.66006007 508.33739466 -162.375 510.25 C-160.09945359 512.18063919 -157.87227924 514.12119329 -155.70703125 516.17578125 C-112.77244649 556.84714759 -57.33393222 574.3554757 0 582 C0 696.51 0 811.02 0 929 C-44.74202703 914.08599099 -86.86417135 896.35422328 -126 870 C-126.9902417 869.33967773 -126.9902417 869.33967773 -128.00048828 868.66601562 C-145.44687173 857.01525017 -161.85398114 844.05251635 -177.75 830.375 C-178.67159912 829.58512695 -178.67159912 829.58512695 -179.61181641 828.77929688 C-183.38467055 825.51023631 -186.949598 822.09800121 -190.45507812 818.54443359 C-192.18938997 816.81066989 -193.9975617 815.20204818 -195.875 813.625 C-202.42956456 807.95790066 -208.42657464 801.79399625 -214.0625 795.21875 C-215.98553803 793.01656128 -217.95987838 790.86784957 -219.94897461 788.7253418 C-225.5569107 782.67768053 -230.87316367 776.46497286 -236 770 C-236.73959961 769.07719238 -236.73959961 769.07719238 -237.49414062 768.13574219 C-252.47975252 749.40825743 -266.08771514 729.82294798 -278 709 C-278.44569336 708.22285645 -278.89138672 707.44571289 -279.35058594 706.64501953 C-284.88883361 696.94189567 -290.12123356 687.10889075 -294.99804688 677.05712891 C-296.02312541 674.95252078 -297.06608851 672.85735134 -298.109375 670.76171875 C-314.5325658 637.38614952 -326.26125451 601.34048535 -334 565 C-334.23412598 563.90768066 -334.46825195 562.81536133 -334.70947266 561.68994141 C-337.62094365 547.81739431 -339.63769475 533.88595148 -341.25 519.8125 C-341.33317474 519.08891296 -341.41634949 518.36532593 -341.50204468 517.61981201 C-343.48089544 500.16603497 -344.23925562 482.80849969 -344.25 465.25 C-344.25067474 464.24821716 -344.25134949 463.24643433 -344.25204468 462.21429443 C-344.15306014 368.78954167 -316.96999873 276.76446827 -260 190 C-259.59620117 189.42040527 -259.19240234 188.84081055 -258.77636719 188.24365234 C-249.54016657 175.01565652 -239.60887622 162.409962 -229.30859375 150 C-226.66953203 146.8197259 -224.07991816 143.60350094 -221.5 140.375 C-212.47243377 129.38135764 -202.40561185 119.30349383 -192.39187622 109.21664429 C-191.35573225 108.1724519 -190.32107239 107.12678431 -189.28805542 106.07949829 C-183.28361289 100.00089209 -177.12786046 94.29066985 -170.44067383 88.95263672 C-168.41189354 87.32953131 -166.44079613 85.67478013 -164.49609375 83.953125 C-155.46363513 75.95736765 -145.89398526 68.89089622 -136 62 C-135.3807666 61.56478027 -134.7615332 61.12956055 -134.12353516 60.68115234 C-106.41994717 41.29248314 -76.24220308 26.40662898 -44.40869141 15.21191406 C-38.43365745 13.08757167 -32.50175385 10.84698547 -26.5625 8.625 C-3.50417661 0 -3.50417661 0 0 0 Z M-135 121 C-135.5784668 121.43425293 -136.15693359 121.86850586 -136.75292969 122.31591797 C-145.66076332 129.03978467 -153.96452088 136.26009453 -162 144 C-162.61020996 144.58297852 -163.22041992 145.16595703 -163.84912109 145.76660156 C-172.72904286 154.28606696 -180.7101928 163.08810093 -188 173 C-188.42619629 173.57073242 -188.85239258 174.14146484 -189.29150391 174.72949219 C-195.80447608 183.46766825 -201.6580943 192.50159323 -207 202 C-207.4345752 202.7719873 -207.86915039 203.54397461 -208.31689453 204.33935547 C-241.15963285 263.33961396 -249.47297891 331.28269095 -231.24682617 396.26391602 C-229.34540177 404.78999985 -229.34540177 404.78999985 -225 412 C-224.64921387 411.56357178 -224.29842773 411.12714355 -223.93701172 410.67749023 C-207.99581443 390.91236791 -191.083168 372.66935408 -170.76660156 357.33398438 C-169.59549046 356.44966278 -168.42810795 355.56038011 -167.26464844 354.66601562 C-135.58742981 330.32625706 -98.98528099 312.55004281 -60.95166016 300.68920898 C-59.02167474 300.16544011 -59.02167474 300.16544011 -58 299 C-57.90210052 296.20576409 -57.87007091 293.43624787 -57.87974548 290.6415863 C-57.87889106 289.75460102 -57.87803663 288.86761573 -57.87715632 287.9537521 C-57.87549879 284.95799894 -57.88102733 281.9623008 -57.88647461 278.96655273 C-57.88675645 276.8285014 -57.88659881 274.69044996 -57.8860321 272.55239868 C-57.885744 266.72825507 -57.89164278 260.90413186 -57.89860606 255.07999301 C-57.90483749 249.00076318 -57.90544323 242.92153294 -57.90663147 236.84230042 C-57.90974541 225.32151502 -57.91795964 213.80073906 -57.92798096 202.27995783 C-57.93914015 189.16773071 -57.94465206 176.05550315 -57.94967639 162.94327247 C-57.96014221 135.96217641 -57.97774286 108.98108873 -58 82 C-82.81164728 82 -115.66742483 106.39820668 -135 121 Z " fill="#AFE038" transform="translate(585,7)"/>
<path d="M0 0 C2.64 0 5.28 0 8 0 C8 114.51 8 229.02 8 347 C5.69 346.34 3.38 345.68 1 345 C1 344.67 1 344.34 1 344 C2.65 344 4.3 344 6 344 C6 231.14 6 118.28 6 2 C4.35 2 2.7 2 1 2 C0.67 1.34 0.34 0.68 0 0 Z " fill="#B5DD68" transform="translate(577,589)"/>
<path d="M0 0 C0.66 0 1.32 0 2 0 C2 113.52 2 227.04 2 344 C2.99 344.33 3.98 344.66 5 345 C3.35 345.33 1.7 345.66 0 346 C0 231.82 0 117.64 0 0 Z " fill="#BBDC62" transform="translate(657,847)"/>
<path d="M0 0 C1.32 0.33 2.64 0.66 4 1 C3.01 1 2.02 1 1 1 C1 112.54 1 224.08 1 339 C2.65 339 4.3 339 6 339 C6 339.66 6 340.32 6 341 C4.02 341.33 2.04 341.66 0 342 C0 229.14 0 116.28 0 0 Z " fill="#B0DD27" transform="translate(659,267)"/>
<path d="M0 0 C0.33 0 0.66 0 1 0 C1.48497539 4.18684776 1.96185176 8.3745832 2.4375 12.5625 C2.57220703 13.72458984 2.70691406 14.88667969 2.84570312 16.08398438 C4.74145077 32.86828673 5.1987688 49.43841197 5.1875 66.3125 C5.1882251 67.41696472 5.1889502 68.52142944 5.18969727 69.65936279 C5.18852012 85.86778533 4.79483087 101.87857274 3 118 C2.67 118 2.34 118 2 118 C2.00222061 116.88722183 2.00444122 115.77444366 2.00672913 114.62794495 C2.02695955 104.1650787 2.04197166 93.70221639 2.05181217 83.23933506 C2.05704125 77.85966238 2.06413935 72.48000542 2.07543945 67.1003418 C2.08626745 61.91325157 2.09227665 56.72617651 2.09487724 51.53907585 C2.09673165 49.5554372 2.10035256 47.57179942 2.10573006 45.58816719 C2.11293932 42.81990864 2.11399099 40.05171362 2.11352539 37.28344727 C2.11712067 36.45482681 2.12071594 35.62620636 2.12442017 34.7724762 C2.47118179 31.08497372 2.47118179 31.08497372 1 28 C0.8415735 25.9291528 0.74875578 23.85321971 0.68359375 21.77734375 C0.64169922 20.51728516 0.59980469 19.25722656 0.55664062 17.95898438 C0.51682404 16.61849264 0.47711186 15.2779978 0.4375 13.9375 C0.39431958 12.59308477 0.35070544 11.2486834 0.30664062 9.90429688 C0.20014642 6.6029766 0.0981354 3.30157764 0 0 Z " fill="#BADE65" transform="translate(996,662)"/>
<path d="M0 0 C2 1 2 1 2.6875 3 C2.790625 3.66 2.89375 4.32 3 5 C2.67 5.33 2.34 5.66 2 6 C1.83996512 8.66426685 1.74057111 11.30560428 1.68359375 13.97265625 C1.66281265 14.77029892 1.64203156 15.56794159 1.62062073 16.38975525 C1.55503842 18.94724611 1.49620033 21.5048428 1.4375 24.0625 C1.39432301 25.79232882 1.35070899 27.52214679 1.30664062 29.25195312 C1.19934828 33.5011926 1.09810574 37.7505389 1 42 C0.67 42 0.34 42 0 42 C0 28.14 0 14.28 0 0 Z " fill="#AEE326" transform="translate(899,846)"/>
<path d="M0 0 C-3.45533314 1.67294007 -6.91473993 3.33727763 -10.375 5 C-11.35984375 5.47695313 -12.3446875 5.95390625 -13.359375 6.4453125 C-14.77089844 7.12207031 -14.77089844 7.12207031 -16.2109375 7.8125 C-17.08024902 8.23144531 -17.94956055 8.65039062 -18.84521484 9.08203125 C-21 10 -21 10 -23 10 C-23 8 -23 8 -21.8125 6.3125 C-20 5 -20 5 -17.3125 5.3125 C-16.549375 5.539375 -15.78625 5.76625 -15 6 C-15 5.34 -15 4.68 -15 4 C-13.29463574 3.26435267 -11.58867329 2.53004321 -9.87890625 1.8046875 C-8.32708898 1.14008384 -6.78683097 0.44855953 -5.25 -0.25 C-3 -1 -3 -1 0 0 Z " fill="#B2E053" transform="translate(777,869)"/>
<path d="M0 0 C0.33 0.66 0.66 1.32 1 2 C0.0625 4.125 0.0625 4.125 -1 6 C-1.99 6 -2.98 6 -4 6 C-4.2475 6.53625 -4.495 7.0725 -4.75 7.625 C-6.30652537 10.5823982 -8.03435673 13.29724051 -10 16 C-10.66 16 -11.32 16 -12 16 C-12.66 17.32 -13.32 18.64 -14 20 C-14.99 20 -15.98 20 -17 20 C-5.47835991 6.3667426 -5.47835991 6.3667426 0 0 Z " fill="#B5DB56" transform="translate(365,146)"/>
<path d="M0 0 C0.33 0 0.66 0 1 0 C1.3125 2.1875 1.3125 2.1875 1 5 C-1.3125 7.625 -1.3125 7.625 -4 10 C-4.598125 10.598125 -5.19625 11.19625 -5.8125 11.8125 C-6.204375 12.204375 -6.59625 12.59625 -7 13 C-7.66 12.67 -8.32 12.34 -9 12 C-9 12.66 -9 13.32 -9 14 C-9.66 13.67 -10.32 13.34 -11 13 C-9.54300902 11.20724155 -8.08436345 9.41582771 -6.625 7.625 C-5.40683594 6.12839844 -5.40683594 6.12839844 -4.1640625 4.6015625 C-2 2 -2 2 0 0 Z " fill="#B4DE4F" transform="translate(842,750)"/>
<path d="M0 0 C1.65 0 3.3 0 5 0 C5 0.66 5 1.32 5 2 C6.32 1.67 7.64 1.34 9 1 C9 1.99 9 2.98 9 4 C10.98 3.67 12.96 3.34 15 3 C15 3.66 15 4.32 15 5 C15.66 5.33 16.32 5.66 17 6 C17 6.66 17 7.32 17 8 C12.76677156 7.37954537 9.47709705 5.89476441 5.6875 3.9375 C4.61886719 3.38964844 3.55023438 2.84179688 2.44921875 2.27734375 C1.64097656 1.85582031 0.83273437 1.43429687 0 1 C0 0.67 0 0.34 0 0 Z " fill="#B2DD56" transform="translate(505,903)"/>
<path d="M0 0 C2.31 0 4.62 0 7 0 C2.98745115 3.51098025 -1.20983041 5.76537994 -6 8 C-6 7.01 -6 6.02 -6 5 C-3 3 -3 3 0 2 C0 1.34 0 0.68 0 0 Z " fill="#B4DE51" transform="translate(798,852)"/>
<path d="M0 0 C0.99 0.33 1.98 0.66 3 1 C-1.455 6.94 -1.455 6.94 -6 13 C-6.33 12.01 -6.66 11.02 -7 10 C-3.78688525 4.26229508 -3.78688525 4.26229508 0 3 C0 2.01 0 1.02 0 0 Z " fill="#B8E05B" transform="translate(893,1030)"/>
<path d="M0 0 C0.33 0 0.66 0 1 0 C1 3.63 1 7.26 1 11 C0.34 11 -0.32 11 -1 11 C-1 12.32 -1 13.64 -1 15 C-1.66 15 -2.32 15 -3 15 C-2.44854729 9.76119922 -1.57077907 5.02649303 0 0 Z " fill="#BEE45B" transform="translate(258,341)"/>
<path d="M0 0 C0 0.66 0 1.32 0 2 C-3.72554052 4.59658885 -7.74007769 6.45093734 -12 8 C-14.21484375 7.578125 -14.21484375 7.578125 -16 7 C-13.71070947 5.82845707 -11.41881638 4.66261926 -9.125 3.5 C-8.47402344 3.16613281 -7.82304687 2.83226562 -7.15234375 2.48828125 C-2.2265625 0 -2.2265625 0 0 0 Z " fill="#B6DB5D" transform="translate(479,325)"/>
<path d="M0 0 C0.66 0.33 1.32 0.66 2 1 C0.88368586 2.83863505 -0.24329627 4.67079723 -1.375 6.5 C-2.00148438 7.5209375 -2.62796875 8.541875 -3.2734375 9.59375 C-3.84320312 10.3878125 -4.41296875 11.181875 -5 12 C-5.66 12 -6.32 12 -7 12 C-6.34 10.02 -5.68 8.04 -5 6 C-4.34 6 -3.68 6 -3 6 C-3 5.34 -3 4.68 -3 4 C-2.34 4 -1.68 4 -1 4 C-0.67 2.68 -0.34 1.36 0 0 Z " fill="#B4DC51" transform="translate(924,988)"/>
<path d="M0 0 C0 0.66 0 1.32 0 2 C-2.64 2.66 -5.28 3.32 -8 4 C-8 4.66 -8 5.32 -8 6 C-10.64 6 -13.28 6 -16 6 C-13.12921701 4.08614468 -10.66588344 3.03567048 -7.4375 1.875 C-6.46683594 1.52179687 -5.49617187 1.16859375 -4.49609375 0.8046875 C-2 0 -2 0 0 0 Z " fill="#B9E15A" transform="translate(736,829)"/>
<path d="M0 0 C0.66 0 1.32 0 2 0 C0.44298069 4.67105792 -2.08447373 8.08705685 -5 12 C-5.33 10.68 -5.66 9.36 -6 8 C-5.34 8 -4.68 8 -4 8 C-3.7834375 7.071875 -3.7834375 7.071875 -3.5625 6.125 C-3 4 -3 4 -2 2 C-1.34 2 -0.68 2 0 2 C0 1.34 0 0.68 0 0 Z " fill="#B6DA58" transform="translate(913,1004)"/>
<path d="M0 0 C2.33944736 0.28730055 4.6739143 0.61936779 7 1 C4.3144406 3.6855594 1.62378672 4.06049974 -2 5 C-1.125 1.125 -1.125 1.125 0 0 Z " fill="#B3DE49" transform="translate(494,372)"/>
<path d="M0 0 C1.32 0.33 2.64 0.66 4 1 C5.29925791 5.33085971 6.343621 9.51474352 7 14 C4.60926851 11.06810006 3.15892693 8.27856712 1.8125 4.75 C1.46832031 3.85796875 1.12414062 2.9659375 0.76953125 2.046875 C0.51558594 1.37140625 0.26164062 0.6959375 0 0 Z " fill="#B8DE5D" transform="translate(287,677)"/>
<path d="M0 0 C0.33 0 0.66 0 1 0 C1 1.65 1 3.3 1 5 C0.34 5 -0.32 5 -1 5 C-0.773125 5.763125 -0.54625 6.52625 -0.3125 7.3125 C0 10 0 10 -1.3125 11.8125 C-3 13 -3 13 -5 13 C-4.54554036 11.58208592 -4.08625056 10.16571954 -3.625 8.75 C-3.24214844 7.56664062 -3.24214844 7.56664062 -2.8515625 6.359375 C-2.04826333 4.13372042 -1.10288338 2.09068328 0 0 Z " fill="#B4DA53" transform="translate(286,265)"/>
<path d="M0 0 C0.66 0.33 1.32 0.66 2 1 C-0.64 3.97 -3.28 6.94 -6 10 C-7.32 9.67 -8.64 9.34 -10 9 C-6.7 6.03 -3.4 3.06 0 0 Z " fill="#B4DE61" transform="translate(402,373)"/>
<path d="M0 0 C-4.95 2.97 -4.95 2.97 -10 6 C-10 3 -10 3 -8.6875 1.375 C-5.46209499 -1.25310778 -4.05266502 -1.01316625 0 0 Z " fill="#B1DC4C" transform="translate(472,114)"/>
<path d="M0 0 C1 2 1 2 0.4375 3.9375 C-1.56520684 6.81094894 -3.78625892 7.72789415 -7 9 C-7.66 8.67 -8.32 8.34 -9 8 C-6.03 5.36 -3.06 2.72 0 0 Z " fill="#B4DA54" transform="translate(815,1052)"/>
<path d="M0 0 C0 0.66 0 1.32 0 2 C0.99 2.33 1.98 2.66 3 3 C-1.37934119 2.48041715 -5.68803391 1.94324258 -10 1 C-6.1496895 -1.56687367 -4.41430237 -0.83288724 0 0 Z " fill="#B6E059" transform="translate(702,615)"/>
<path d="M0 0 C-0.33 1.32 -0.66 2.64 -1 4 C-4.3 4.33 -7.6 4.66 -11 5 C-3.5 0 -3.5 0 0 0 Z " fill="#B7DA5F" transform="translate(519,31)"/>
<path d="M0 0 C-1.28813342 0.83878455 -2.58063256 1.67086783 -3.875 2.5 C-4.59429688 2.9640625 -5.31359375 3.428125 -6.0546875 3.90625 C-8 5 -8 5 -10 5 C-10 3 -10 3 -8.6875 1.4375 C-5.67114441 -1.1319881 -3.6011295 -1.11759191 0 0 Z " fill="#B4D856" transform="translate(776,1142)"/>
<path d="M0 0 C0 3.41321235 -0.66867466 4.39472885 -2.5 7.1875 C-2.9640625 7.90292969 -3.428125 8.61835938 -3.90625 9.35546875 C-4.2671875 9.89816406 -4.628125 10.44085938 -5 11 C-6.1171875 7.28125 -6.1171875 7.28125 -5.0625 4.75 C-4.5365625 3.88375 -4.5365625 3.88375 -4 3 C-3.34 3.33 -2.68 3.66 -2 4 C-1.34 2.68 -0.68 1.36 0 0 Z " fill="#B3DB50" transform="translate(391,459)"/>
<path d="M0 0 C0.66 0.33 1.32 0.66 2 1 C-1.49087093 5.0042343 -3.64951939 6.62671065 -9 7 C-6.03716687 4.61327331 -3.05729491 2.2646629 0 0 Z " fill="#B5DB5F" transform="translate(434,349)"/>
<path d="M0 0 C0.66 0.33 1.32 0.66 2 1 C0.47875703 4.04248594 -0.44454636 5.70838684 -3.5 7.3125 C-6 8 -6 8 -9 8 C-6.03 5.36 -3.06 2.72 0 0 Z " fill="#BBE260" transform="translate(420,91)"/>
<path d="M0 0 C-1.2491742 3.45925163 -2.67527795 6.14693203 -5 9 C-5.36666667 3.5 -5.36666667 3.5 -3.625 1.125 C-2 0 -2 0 0 0 Z " fill="#B8DE50" transform="translate(383,200)"/>
<path d="M0 0 C1 3 1 3 -0.1875 5.625 C-2 8 -2 8 -4.1875 8.8125 C-4.785625 8.874375 -5.38375 8.93625 -6 9 C-4 6 -2 3 0 0 Z " fill="#B3DA58" transform="translate(347,167)"/>
<path d="M0 0 C0.66 0.33 1.32 0.66 2 1 C0.35 3.64 -1.3 6.28 -3 9 C-3.33 7.68 -3.66 6.36 -4 5 C-3.34 5 -2.68 5 -2 5 C-2.33 4.01 -2.66 3.02 -3 2 C-2.01 1.34 -1.02 0.68 0 0 Z " fill="#B2DD51" transform="translate(931,977)"/>
<path d="M0 0 C1.26706235 3.80118706 0.57172296 5.3850372 -1 9 C-1.99 9.33 -2.98 9.66 -4 10 C-2.8905928 6.51329166 -1.73662334 3.22515763 0 0 Z " fill="#B5DD5E" transform="translate(291,255)"/>
<path d="M0 0 C0.66 0 1.32 0 2 0 C1.64950425 3.24208567 1.43778819 4.61527704 -1.0625 6.8125 C-1.701875 7.204375 -2.34125 7.59625 -3 8 C-3.33 7.01 -3.66 6.02 -4 5 C-3.01 5 -2.02 5 -1 5 C-0.67 3.35 -0.34 1.7 0 0 Z " fill="#B4DE4A" transform="translate(876,1050)"/>
<path d="M0 0 C-5.445 2.475 -5.445 2.475 -11 5 C-11 4.34 -11 3.68 -11 3 C-7.34895956 -0.25985754 -4.7197224 -1.5732408 0 0 Z " fill="#B6DB63" transform="translate(777,869)"/>
<path d="M0 0 C1.32 0.33 2.64 0.66 4 1 C1.63707344 3.52588702 0.33537489 4.88820837 -3 6 C-3 5.01 -3 4.02 -3 3 C-2.34 3 -1.68 3 -1 3 C-0.67 2.01 -0.34 1.02 0 0 Z " fill="#AFDE4D" transform="translate(825,834)"/>
<path d="M0 0 C1.32 0.66 2.64 1.32 4 2 C1.69 3.32 -0.62 4.64 -3 6 C-3 5.01 -3 4.02 -3 3 C-2.34 3 -1.68 3 -1 3 C-0.67 2.01 -0.34 1.02 0 0 Z " fill="#B7E04E" transform="translate(807,1116)"/>
<path d="M0 0 C0.99 0 1.98 0 3 0 C3 0.66 3 1.32 3 2 C4.32 2 5.64 2 7 2 C7 2.66 7 3.32 7 4 C5.02 4 3.04 4 1 4 C0.67 2.68 0.34 1.36 0 0 Z " fill="#B3E32D" transform="translate(439,860)"/>
</svg>
